# xmcd
#
# Track frame offsets:
#	150
#	16617
#	30039
#	49503
#	67445
#	84894
#	100434
#	117798
#	134857
#	151216
#	167663
#	185565
#
# Disc length: 2651 seconds
#
# Revision: 0
# Processed by: cddbd v1.5.1PL0 Copyright (c) Steve Scherf et al.
# Submitted via: dBpowerAMP V4.0
#
DISCID=930a590c
DTITLE=Bebe - Pafuera Telarañas
DYEAR=2004
DGENRE=
TTITLE0=Men señará
TTITLE1=Ella
TTITLE2=Con mis manos
TTITLE3=Siempre me quedará
TTITLE4=Malo
TTITLE5=Ska de la tierra
TTITLE6=El golpe
TTITLE7=Revolvió
TTITLE8=Como los olivos
TTITLE9=Cuidándote
TTITLE10=Siete horas
TTITLE11=Tu silencio
EXTD=
EXTT0=
EXTT1=
EXTT2=
EXTT3=
EXTT4=
EXTT5=
EXTT6=
EXTT7=
EXTT8=
EXTT9=
EXTT10=
EXTT11=
PLAYORDER=
